<?xml version="1.0" encoding="iso-8859-1"?>
<!-- Generator: Adobe Illustrator 19.0.0, SVG Export Plug-In . SVG Version: 6.00 Build 0)  -->
<svg version="1.1" id="Capa_1" xmlns="http://www.w3.org/2000/svg" xmlns:xlink="http://www.w3.org/1999/xlink" x="0px" y="0px"
	 viewBox="0 0 60 60" style="enable-background:new 0 0 60 60;" xml:space="preserve">
<g>
	<g>
		<path d="M58,28H44c-0.6,0-1,0.4-1,1v5v5v4H30c-0.6,0-1,0.4-1,1v4H17v-4v-5v-5c0-0.6-0.4-1-1-1H2c-0.6,0-1,0.4-1,1v5v5v5v5v5
			c0,0.6,0.4,1,1,1h14h14h14h14c0.6,0,1-0.4,1-1v-5v-5v-5v-5v-5v-5C59,28.4,58.6,28,58,28z M31,50h12v3H31V50z M57,38H45v-3h12V38z
			 M45,40h12v3H45V40z M57,45v3H45v-3H57z M45,50h12v3H45V50z M45,30h12v3H45V30z M31,45h12v3H31V45z M29,53H17v-3h12V53z M15,48H3
			v-3h12V48z M15,43H3v-3h12V43z M3,50h12v3H3V50z M3,35h12v3H3V35z M3,55h12v3H3V55z M17,55h12v3H17V55z M31,55h12v3H31V55z M57,58
			H45v-3h12V58z"/>
		<path d="M21,12h4c1.6,0,3-0.6,4-1.5V14c-5.6,0.5-10,5.2-10,10.9c0,6.1,4.9,11,11,11s11-4.9,11-11c0-5.8-4.4-10.4-10-10.9v-3.5
			c1,0.9,2.4,1.5,4,1.5h4c3.4,0,6-2.6,6-6s-2.6-6-6-6h-4c-2.1,0-3.9,1-5,2.6C28.9,1,27.1,0,25,0h-4c-3.4,0-6,2.6-6,6S17.6,12,21,12z
			 M39,25c0,5-4,9-9,9s-9-4-9-9s4-9,9-9S39,20,39,25z M35,2h4c2.2,0,4,1.8,4,4c0,2.2-1.8,4-4,4h-4c-1.9,0-3.4-1.3-3.9-3H38V5h-6.9
			C31.6,3.3,33.1,2,35,2z M21,2h4c1.9,0,3.4,1.3,3.9,3H22v2h6.9c-0.4,1.7-2,3-3.9,3h-4c-2.2,0-4-1.8-4-4S18.8,2,21,2z"/>
		<path d="M29,18v2h-1c-1.2,0-2,0.8-2,2v2c0,1.2,0.8,2,2,2h4v2h-4v-1h-2v1c0,1.2,0.8,2,2,2h1v2h2v-2h1c1.2,0,2-0.8,2-2v-2
			c0-1.2-0.8-2-2-2h-4v-2h4v1h2v-1c0-1.2-0.8-2-2-2h-1v-2H29z"/>
		<path d="M7,30c0.3,0,0.5-0.1,0.7-0.3l3-3l-1.4-1.4L8,26.6V8H6v18.6l-1.3-1.3l-1.4,1.4l3,3C6.5,29.9,6.7,30,7,30z"/>
		<path d="M53,25c0.3,0,0.5-0.1,0.7-0.3l3-3l-1.4-1.4L54,21.6V8h-2v13.6l-1.3-1.3l-1.4,1.4l3,3C52.5,24.9,52.7,25,53,25z"/>
		<rect x="52" y="4" width="2" height="2"/>
		<rect x="52" width="2" height="2"/>
		<rect x="6" y="4" width="2" height="2"/>
		<rect x="6" width="2" height="2"/>
	</g>
</g>
<g>
</g>
<g>
</g>
<g>
</g>
<g>
</g>
<g>
</g>
<g>
</g>
<g>
</g>
<g>
</g>
<g>
</g>
<g>
</g>
<g>
</g>
<g>
</g>
<g>
</g>
<g>
</g>
<g>
</g>
</svg>
